<svg xmlns="http://www.w3.org/2000/svg" xmlns:xlink="http://www.w3.org/1999/xlink" viewBox="0 0 136.56 37.56"><defs><style>.cls-1{fill:none;}.cls-2{fill:#fff;}.cls-3{clip-path:url(#clip-path);}.cls-4{clip-path:url(#clip-path-2);}.cls-5{clip-path:url(#clip-path-3);}.cls-6,.cls-7{fill:#ff3131;}.cls-7{fill-rule:evenodd;}</style><clipPath id="clip-path" transform="translate(0 -1.31)"><rect class="cls-1" y="32.62" width="49.55" height="5.51"/></clipPath><clipPath id="clip-path-2" transform="translate(0 -1.31)"><rect class="cls-1" x="56" y="1.31" width="49.55" height="5.51"/></clipPath><clipPath id="clip-path-3" transform="translate(0 -1.31)"><rect class="cls-1" x="36.42" y="2.68" width="22.5" height="36" transform="translate(-0.66 39.76) rotate(-45)"/></clipPath></defs><title>logo-dotaz</title><g id="Layer_2" data-name="Layer 2"><g id="Layer_1-2" data-name="Layer 1"><path class="cls-2" d="M4.78,4.61h9.05c6.67,0,11,4,11,10.06s-4.34,10-11,10h-9Zm8.85,14c2.59,0,4.2-1.49,4.2-3.93s-1.61-3.94-4.2-3.94h-2V18.6Z" transform="translate(0 -1.31)"/><g class="cls-3"><rect class="cls-2" y="31.32" width="49.55" height="5.51"/></g><g class="cls-4"><rect class="cls-2" x="56" width="49.55" height="5.51"/></g><path class="cls-2" d="M66.68,23.47h-6.5v-7H80.92v7h-6.5v15.4H66.68Z" transform="translate(0 -1.31)"/><path class="cls-2" d="M95.57,16.47h8.07L112,38.87h-8.13l-1-2.79H96.31l-1,2.79H87.25ZM101.65,31l-2-6.14h-.13l-2,6.14Z" transform="translate(0 -1.31)"/><path class="cls-2" d="M118.17,33.36l8.38-10.17,0-.1-2.79,0h-5.24V16.47h17.88V22L128,32.15l0,.09,3.11,0h5.4v6.66H118.17Z" transform="translate(0 -1.31)"/><g class="cls-5"><g class="cls-5"><path class="cls-6" d="M42.64,6.64a9.27,9.27,0,1,0,6.55,2.72,9.25,9.25,0,0,0-6.55-2.72ZM34.81,8.08a11.08,11.08,0,1,1-3.24,7.83A11,11,0,0,1,34.81,8.08Z" transform="translate(0 -1.31)"/><rect class="cls-6" x="50.23" y="22.39" width="2.41" height="4.63" transform="translate(-2.41 42.3) rotate(-45)"/><path class="cls-7" d="M52.62,25.9a2.46,2.46,0,0,1,3.48,0L60.17,30a2.46,2.46,0,0,1-3.48,3.47l-4.07-4.07A2.47,2.47,0,0,1,52.62,25.9Z" transform="translate(0 -1.31)"/><path class="cls-6" d="M36.47,20.78a7.86,7.86,0,0,1,0-9.74.77.77,0,0,1,.59-.31.84.84,0,0,1,.64.24l.1.11a.81.81,0,0,1,.07,1.09,6.07,6.07,0,0,0,0,7.48.81.81,0,0,1-.07,1.09l-.1.11a.84.84,0,0,1-.64.24.77.77,0,0,1-.59-.31Z" transform="translate(0 -1.31)"/></g></g></g></g></svg>